<svg xmlns="http://www.w3.org/2000/svg" viewBox="0 17.899999618530273 180.0500030517578 47.5" data-asc="1.058" width="180.0500030517578" height="47.5"><defs/><g fill="#1d00f5"><g transform="translate(0, 0)"><path d="M0 17.90L26 17.90L26.50 27.80L25.60 27.80Q23.50 22.75 21.20 20.88Q18.90 19.00 14.45 19.00L12.70 19.00L12.70 34.45L14.40 34.45Q16.75 34.45 18.35 32.68Q19.95 30.90 20.60 27.90L21.35 27.90L21.35 42.70L20.50 42.70Q19.60 38.95 18.07 37.35Q16.55 35.75 13.90 35.75L12.70 35.75L12.70 51.80L14.60 51.80Q19.20 51.80 22.43 49.05Q25.65 46.30 26.85 42.00L27.85 42.00L27.45 52.90L0 52.90L0 51.80L2.95 51.80L2.95 19.00L0 19.00L0 17.90ZM27.65 30.00L27.65 29.10L42.60 29.10L42.60 30.00L39.45 30.00L45.45 46.60L50.85 30.00L47.50 30.00L47.50 29.10L54.25 29.10L54.25 30.00L52.05 30.00L44.65 52.90L38.95 52.90L29.70 30.00L27.65 30.00ZM66.65 53.40Q60.20 53.40 56.98 50.08Q53.75 46.75 53.75 40.83Q53.75 34.90 57.38 31.75Q61 28.60 66.60 28.60Q77.95 28.60 77.50 40.00L63.40 40.00L63.40 41.95Q63.40 46.85 64.65 49.35Q65.90 51.85 69 51.85Q74.80 51.85 76.60 45.65L77.50 45.80Q76.55 49.40 74.08 51.40Q71.60 53.40 66.65 53.40M63.45 39.00L68.60 39.00L68.60 36.55Q68.60 32.50 68.13 31.03Q67.65 29.55 66.22 29.55Q64.80 29.55 64.13 31.13Q63.45 32.70 63.45 36.55L63.45 39.00ZM79.40 29.10L91.45 29.10L91.45 33.70Q92.25 31.40 93.90 30.00Q95.55 28.60 98.90 28.60Q106.65 28.60 106.65 36.95L106.65 52.00L109.45 52.00L109.45 52.90L95.30 52.90L95.30 52.00L97.35 52.00L97.35 35.75Q97.35 32.75 96.95 31.88Q96.55 31.00 95.50 31.00Q93.90 31.00 92.67 33.10Q91.45 35.20 91.45 38.20L91.45 52.00L93.60 52.00L93.60 52.90L79.40 52.90L79.40 52.00L82.15 52.00L82.15 30.00L79.40 30.00L79.40 29.10ZM112.35 45.75L112.35 30.00L109.60 30.00L109.60 29.10L112.35 29.10L112.35 22.65L121.65 20.35L121.65 29.10L128.15 29.10L128.15 30.00L121.65 30.00L121.65 46.85Q121.65 49.20 122.13 50.30Q122.60 51.40 124.10 51.40Q125.60 51.40 126.72 49.90Q127.85 48.40 128.20 45.80L129.05 45.90Q128.65 49.35 126.85 51.38Q125.05 53.40 120.90 53.40Q116.75 53.40 114.55 51.75Q112.35 50.10 112.35 45.75ZM146.25 30.50Q144.40 30.50 143 32.90Q141.60 35.30 141.60 38.60L141.60 52.00L145.15 52.00L145.15 52.90L129.55 52.90L129.55 52.00L132.30 52.00L132.30 30.00L129.55 30.00L129.55 29.10L141.60 29.10L141.60 33.90Q142.25 31.35 144.10 29.98Q145.95 28.60 148.30 28.60Q150.65 28.60 152.13 29.93Q153.60 31.25 153.60 33.68Q153.60 36.10 152.50 37.40Q151.40 38.70 149.13 38.70Q146.85 38.70 145.78 37.20Q144.70 35.70 145.50 33.05L147.30 33.05Q148.55 30.50 146.25 30.50ZM153.30 30.00L153.30 29.10L167.80 29.10L167.80 30.00L165.10 30.00L170.55 46.60L176.35 30.00L173 30.00L173 29.10L180.05 29.10L180.05 30.00L177.55 30.00L168.20 56.95Q166.55 61.65 164.50 63.53Q162.45 65.40 159.50 65.40Q156.55 65.40 154.85 64.05Q153.15 62.70 153.15 60.60Q153.15 58.50 154.25 57.40Q155.35 56.30 157.15 56.30Q161.30 56.30 161.30 59.75Q161.30 60.50 161 61.55L159.25 61.55Q158.85 62.70 159.15 63.45Q159.45 64.20 160.50 64.20Q162.55 64.20 164.15 62.18Q165.75 60.15 167.20 56.00L168.30 52.90L163.90 52.90L155.35 30.00L153.30 30.00Z"/></g></g></svg>